  0
SECTION
  2
TABLES
  0
TABLE
  2
LTYPE
  0
LTYPE
  2
CONTINUOUS
 70
     0
  3
Solid line
 72
    65
 73
     0
 40
0.0
  0
LTYPE
  2
DASHED
 70
     0
  3
Dashed line
 72
    65
 73
     2
 40
750.0
 49
500.0
 49
-250.0
  0
LTYPE
  2
CENTER
 70
     0
  3
Center line
 72
    65
 73
     4
 40
1050.0
 49
750.0
 49
-150.0
 49
150.0
 49
-150.0
  0
ENDTAB
  0
TABLE
  2
LAYER
  0
LAYER
  2
KERB
 70
     0
 62
     7
  6
CONTINUOUS
370
    50
  0
LAYER
  2
CENTRELINE
 70
     0
 62
     2
  6
CENTER
370
    25
  0
ENDTAB
  0
ENDSEC
  0
SECTION
  2
ENTITIES
  0
LINE
  8
KERB
 10
0.0
 20
0.0
 11
40000.0
 21
0.0
  0
LINE
  8
CENTRELINE
 10
0.0
 20
-5000.0
 11
40000.0
 21
-5000.0
  0
LINE
  8
0
 62
     1
  6
DASHED
370
    13
 10
0.0
 20
-10000.0
 11
40000.0
 21
-10000.0
  0
LINE
  8
0
 62
     5
370
   140
 10
0.0
 20
-16000.0
 11
40000.0
 21
-16000.0
  0
ENDSEC
  0
EOF
