  0
SECTION
  2
ENTITIES
  0
LINE
  8
0
 62
     7
 10
0.0
 20
0.0
 11
3500.0
 21
0.0
  0
LINE
  8
0
 62
     7
 10
3500.0
 20
0.0
 11
7000.0
 21
0.0
  0
LINE
  8
0
 62
     7
 10
7000.0
 20
0.0
 11
10500.0
 21
0.0
  0
LINE
  8
0
 62
     7
 10
10500.0
 20
0.0
 11
14000.0
 21
0.0
  0
LINE
  8
0
 62
     7
 10
14000.0
 20
0.0
 11
14000.0
 21
40000.0
  0
LINE
  8
0
 62
     7
 10
14000.0
 20
40000.0
 11
10500.0
 21
40000.0
  0
LINE
  8
0
 62
     7
 10
10500.0
 20
40000.0
 11
7000.0
 21
40000.0
  0
LINE
  8
0
 62
     7
 10
7000.0
 20
40000.0
 11
3500.0
 21
40000.0
  0
LINE
  8
0
 62
     7
 10
3500.0
 20
40000.0
 11
0.0
 21
40000.0
  0
LINE
  8
0
 62
     7
 10
0.0
 20
40000.0
 11
0.0
 21
0.0
  0
LINE
  8
0
 62
     7
 10
3500.0
 20
0.0
 11
3500.0
 21
40000.0
  0
LINE
  8
0
 62
     7
 10
7000.0
 20
0.0
 11
7000.0
 21
40000.0
  0
LINE
  8
0
 62
     7
 10
10500.0
 20
0.0
 11
10500.0
 21
40000.0
  0
POINT
  8
0
 62
     1
 10
1750.0
 20
20000.0
  0
POINT
  8
0
 62
     3
 10
5250.0
 20
20000.0
  0
POINT
  8
0
 62
     5
 10
8750.0
 20
20000.0
  0
POINT
  8
0
 62
     2
 10
12250.0
 20
20000.0
  0
LINE
  8
BUS_START
 62
     7
 10
7000.0
 20
5000.0
 11
7000.0
 21
15000.0
  0
ENDSEC
  0
EOF
